#define iconify_width 10
#define iconify_height 10
static unsigned char iconify_bits[] = {
   0x03, 0x03, 0x03, 0x03, 0x87, 0x03, 0x86, 0x01, 0xce, 0x01, 0xcc, 0x00,
   0xfc, 0x00, 0x78, 0x00, 0x78, 0x00, 0x30, 0x00 };
