<?xml version="1.0" encoding="UTF-8" standalone="no"?>
<!-- Created with Inkscape (http://www.inkscape.org/) -->

<svg
   xmlns:dc="http://purl.org/dc/elements/1.1/"
   xmlns:cc="http://creativecommons.org/ns#"
   xmlns:rdf="http://www.w3.org/1999/02/22-rdf-syntax-ns#"
   xmlns:svg="http://www.w3.org/2000/svg"
   xmlns="http://www.w3.org/2000/svg"
   xmlns:sodipodi="http://sodipodi.sourceforge.net/DTD/sodipodi-0.dtd"
   xmlns:inkscape="http://www.inkscape.org/namespaces/inkscape"
   id="svg4230"
   version="1.1"
   inkscape:version="0.91 r13725"
   width="98.75"
   height="25"
   viewBox="0 0 98.75 25"
   sodipodi:docname="text-entry.svg">
  <metadata
     id="metadata4236">
    <rdf:RDF>
      <cc:Work
         rdf:about="">
        <dc:format>image/svg+xml</dc:format>
        <dc:type
           rdf:resource="http://purl.org/dc/dcmitype/StillImage" />
        <dc:title />
      </cc:Work>
    </rdf:RDF>
  </metadata>
  <defs
     id="defs4234">
    <filter
       inkscape:collect="always"
       style="color-interpolation-filters:sRGB"
       id="filter4155"
       x="-0.00756768"
       width="1.0151354"
       y="-0.028963869"
       height="1.0579277">
      <feGaussianBlur
         inkscape:collect="always"
         stdDeviation="0.31052246"
         id="feGaussianBlur4157" />
    </filter>
  </defs>
  <sodipodi:namedview
     pagecolor="#ffffff"
     bordercolor="#666666"
     borderopacity="1"
     objecttolerance="10"
     gridtolerance="10"
     guidetolerance="10"
     inkscape:pageopacity="0"
     inkscape:pageshadow="2"
     inkscape:window-width="800"
     inkscape:window-height="843"
     id="namedview4232"
     showgrid="false"
     inkscape:snap-bbox="true"
     inkscape:bbox-nodes="true"
     inkscape:snap-page="true"
     inkscape:zoom="18.560211"
     inkscape:cx="97.894439"
     inkscape:cy="13.471501"
     inkscape:window-x="800"
     inkscape:window-y="0"
     inkscape:window-maximized="0"
     inkscape:current-layer="svg4230"
     showguides="true"
     inkscape:guide-bbox="true"
     inkscape:object-nodes="true"
     inkscape:snap-smooth-nodes="true" />
  <path
     style="color:#000000;display:inline;overflow:visible;visibility:visible;opacity:0.4;fill:#000000;fill-opacity:1;fill-rule:nonzero;stroke:#000000;stroke-width:0.05489022;stroke-linecap:round;stroke-linejoin:round;stroke-miterlimit:4;stroke-dasharray:none;stroke-dashoffset:0;stroke-opacity:1;marker:none;enable-background:accumulate"
     d="m 1.1368201,0.02744511 c -0.61435799,0 -1.10937499,0.4950168 -1.10937499,1.10937509 l 0,22.7538048 C 0.02744511,24.504983 0.52246211,25 1.1368201,25 l 95.4437189,0 c 0.614358,0 1.10742,-0.495017 1.10742,-1.109375 l 0,-22.7538048 c 0,-0.61435829 -0.493062,-1.10937509 -1.10742,-1.10937509 z m 0.837891,0.8574219 93.7659839,0 c 0.603839,0 1.089844,0.46310149 1.089844,1.03906249 l 0,21.1795865 c 0,0.575961 -0.486005,1.039062 -1.089844,1.039062 l -93.7659839,0 c -0.603838,0 -1.08984399,-0.463101 -1.08984399,-1.039062 l 0,-21.1795865 c 0,-0.575961 0.48600599,-1.03906249 1.08984399,-1.03906249 z"
     id="rect3826"
     inkscape:connector-curvature="0"
     sodipodi:nodetypes="ssssssssssssssssss" />
  <path
     id="path4135"
     d="m 1.9747111,0.88486701 c -0.614358,0 -1.10937499,0.49501679 -1.10937499,1.10937509 l 0,21.0389609 c 0,0.614358 0.49501699,1.109375 1.10937499,1.109375 l 93.7659839,0 c 0.614358,0 1.089844,-0.424704 1.089844,-1.039062 l 0,-21.1795865 c 0,-0.6143583 -0.475486,-1.03906249 -1.089844,-1.03906249 z m 0.837891,0.85742189 92.0882489,0 c 0.603839,0 1.072786,0.3927891 1.072268,0.9687499 l -0.01758,19.5350552 c -5.18e-4,0.575961 -0.450853,1.039062 -1.054692,1.039062 l -92.0882489,0 c -0.603839,0 -1.089844,-0.463101 -1.089844,-1.039062 l 0,-19.4647426 c 0,-0.575961 0.486005,-1.0390625 1.089848,-1.0390625 z"
     style="color:#000000;display:inline;overflow:visible;visibility:visible;opacity:0.2;fill:#000000;fill-opacity:1;fill-rule:nonzero;stroke:#000000;stroke-width:0.05489022;stroke-linecap:round;stroke-linejoin:round;stroke-miterlimit:4;stroke-dasharray:none;stroke-dashoffset:0;stroke-opacity:1;marker:none;filter:url(#filter4155);enable-background:accumulate"
     inkscape:connector-curvature="0"
     sodipodi:nodetypes="ssssssssssssssssss" />
</svg>
