<?xml version="1.0" encoding="UTF-8" standalone="no"?>
<!-- Created with Inkscape (http://www.inkscape.org/) -->

<svg
   xmlns:dc="http://purl.org/dc/elements/1.1/"
   xmlns:cc="http://creativecommons.org/ns#"
   xmlns:rdf="http://www.w3.org/1999/02/22-rdf-syntax-ns#"
   xmlns:svg="http://www.w3.org/2000/svg"
   xmlns="http://www.w3.org/2000/svg"
   xmlns:sodipodi="http://sodipodi.sourceforge.net/DTD/sodipodi-0.dtd"
   xmlns:inkscape="http://www.inkscape.org/namespaces/inkscape"
   id="svg4243"
   version="1.1"
   inkscape:version="0.91 r13725"
   width="12.5"
   height="12.5"
   viewBox="0 0 12.5 12.5"
   sodipodi:docname="ruler.svg">
  <metadata
     id="metadata4249">
    <rdf:RDF>
      <cc:Work
         rdf:about="">
        <dc:format>image/svg+xml</dc:format>
        <dc:type
           rdf:resource="http://purl.org/dc/dcmitype/StillImage" />
        <dc:title></dc:title>
      </cc:Work>
    </rdf:RDF>
  </metadata>
  <defs
     id="defs4247">
    <filter
       inkscape:collect="always"
       style="color-interpolation-filters:sRGB"
       id="filter4155"
       x="-0.00756768"
       width="1.0151354"
       y="-0.028963869"
       height="1.0579277">
      <feGaussianBlur
         inkscape:collect="always"
         stdDeviation="0.31052246"
         id="feGaussianBlur4157" />
    </filter>
  </defs>
  <sodipodi:namedview
     pagecolor="#ffffff"
     bordercolor="#666666"
     borderopacity="1"
     objecttolerance="10"
     gridtolerance="10"
     guidetolerance="10"
     inkscape:pageopacity="0"
     inkscape:pageshadow="2"
     inkscape:window-width="800"
     inkscape:window-height="843"
     id="namedview4245"
     showgrid="false"
     showguides="true"
     inkscape:guide-bbox="true"
     inkscape:snap-bbox="true"
     inkscape:snap-bbox-edge-midpoints="false"
     inkscape:bbox-nodes="true"
     inkscape:snap-page="true"
     inkscape:snap-nodes="true"
     inkscape:object-nodes="true"
     inkscape:snap-smooth-nodes="true"
     inkscape:zoom="11.6"
     inkscape:cx="7.3338456"
     inkscape:cy="15.346513"
     inkscape:window-x="800"
     inkscape:window-y="0"
     inkscape:window-maximized="0"
     inkscape:current-layer="svg4243" />
  <path
     style="color:#000000;display:inline;overflow:visible;visibility:visible;opacity:0.4;fill:#000000;fill-opacity:1;fill-rule:nonzero;stroke:#000000;stroke-width:0.05489022;stroke-linecap:round;stroke-linejoin:round;stroke-miterlimit:4;stroke-dasharray:none;stroke-dashoffset:0;stroke-opacity:1;marker:none;enable-background:accumulate"
     d="M 1.1368201,0 C 0.52246211,0 0.02744511,0.495017 0.02744511,1.109375 l 0,10.253805 c 0,0.614358 0.495017,1.109375 1.10937499,1.109375 l 10.2557599,0 c 0.614358,0 1.10742,-0.495017 1.10742,-1.109375 l 0,-10.253805 C 12.5,0.49501727 12.006938,0 11.39258,0 Z m 0.837891,0.857422 8.5780249,0 c 0.603839,0 1.089844,0.4631012 1.089844,1.039062 l 0,8.679587 c 0,0.575961 -0.486005,1.039062 -1.089844,1.039062 l -8.5780249,0 c -0.603838,0 -1.08984399,-0.463101 -1.08984399,-1.039062 l 0,-8.679587 c 0,-0.575961 0.48600599,-1.039062 1.08984399,-1.039062 z"
     id="rect3826"
     inkscape:connector-curvature="0"
     sodipodi:nodetypes="ssssssssssssssssss" />
  <path
     id="path4135"
     d="m 1.9747111,0.857422 c -0.614358,0 -1.10937499,0.495017 -1.10937499,1.109375 l 0,8.538961 c 0,0.614358 0.28656659,1.109375 0.90092459,1.109375 l 8.7864753,0 c 0.614358,0 1.089844,-0.424704 1.089844,-1.039062 l 0,-8.679587 c 0,-0.614358 -0.475486,-1.039062 -1.089844,-1.039062 z m 0.837891,0.857422 6.9002899,0 c 0.603839,0 1.073707,0.3927906 1.072268,0.9687501 L 10.76758,9.718649 c -0.0014,0.575959 -0.450853,1.039062 -1.054692,1.039062 l -6.9002899,0 c -0.603839,0 -1.089844,-0.463101 -1.089844,-1.039062 l 0,-6.9647429 c 0,-0.5759611 0.486005,-1.0390621 1.089848,-1.0390621 z"
     style="color:#000000;display:inline;overflow:visible;visibility:visible;opacity:0.2;fill:#000000;fill-opacity:1;fill-rule:nonzero;stroke:#000000;stroke-width:0.05489022;stroke-linecap:round;stroke-linejoin:round;stroke-miterlimit:4;stroke-dasharray:none;stroke-dashoffset:0;stroke-opacity:1;marker:none;filter:url(#filter4155);enable-background:accumulate"
     inkscape:connector-curvature="0"
     sodipodi:nodetypes="ssssssssssssssssss" />
</svg>
